<svg xmlns="http://www.w3.org/2000/svg" viewBox="0 0 32 32"><rect width="32" height="32" rx="7" fill="#c8412f"/><path d="M8.5 7a2 2 0 0 1 2-2h7l6 6v16h-15z" fill="#fff"/><path d="M17.5 5l6 6h-4a2 2 0 0 1-2-2z" fill="#f0bdb2"/><circle cx="13" cy="15" r="1.7" fill="#1c1b19"/><circle cx="19" cy="15" r="1.7" fill="#1c1b19"/><path d="M0 20h32v5a7 7 0 0 1-7 7H7a7 7 0 0 1-7-7z" fill="#9c2e1c"/><rect x="2.6" y="18" width="4.6" height="4.2" rx="2.1" fill="#fff"/><rect x="24.8" y="18" width="4.6" height="4.2" rx="2.1" fill="#fff"/></svg>
